<svg width="18" height="18" viewBox="0 0 18 18" fill="none" xmlns="http://www.w3.org/2000/svg">
<path d="M14.0679 0.0714278H3.88932C2.2035 0.0714278 0.835752 1.43917 0.835752 3.125V13.3036C0.835752 14.9894 2.2035 16.3571 3.88932 16.3571H9.52995V10.0485H7.40941V7.58873H9.52995V5.77567C9.52995 3.67634 10.8235 2.53125 12.7002 2.53125C13.5908 2.53125 14.3648 2.59487 14.5874 2.62667V4.82143L13.2939 4.83203C12.2654 4.83203 12.0746 5.30915 12.0746 6.01953V7.58873H14.5026L14.1845 10.0485H12.0746V16.3571H14.0679C15.7537 16.3571 17.1215 14.9894 17.1215 13.3036V3.125C17.1215 1.43917 15.7537 0.0714278 14.0679 0.0714278Z" fill="black"/>
</svg>
