<svg width="16" height="16" viewBox="0 0 16 16" fill="none" xmlns="http://www.w3.org/2000/svg">
<path d="M11.5681 0.182144H4.41575C1.98687 0.182144 0.0108032 2.12457 0.0108032 4.512V11.5422C0.0108032 13.9298 1.98687 15.8721 4.41575 15.8721H11.5681C13.9971 15.8721 15.9732 13.9297 15.9732 11.5422V4.512C15.9733 2.12457 13.9971 0.182144 11.5681 0.182144ZM14.557 11.5422C14.557 13.1622 13.2162 14.48 11.5682 14.48H4.41575C2.76779 14.4801 1.42706 13.1622 1.42706 11.5422V4.512C1.42706 2.89217 2.76779 1.57423 4.41575 1.57423H11.5681C13.2161 1.57423 14.5569 2.89217 14.5569 4.512V11.5422H14.557Z" fill="black"/>
<path d="M7.99268 3.98445C5.72468 3.98445 3.87958 5.79806 3.87958 8.02735C3.87958 10.2565 5.72468 12.0701 7.99268 12.0701C10.2607 12.0701 12.1058 10.2565 12.1058 8.02735C12.1058 5.79806 10.2607 3.98445 7.99268 3.98445ZM7.99268 10.6779C6.5057 10.6779 5.29584 9.48886 5.29584 8.02726C5.29584 6.56557 6.50561 5.37645 7.99268 5.37645C9.47976 5.37645 10.6895 6.56557 10.6895 8.02726C10.6895 9.48886 9.47966 10.6779 7.99268 10.6779Z" fill="black"/>
<path d="M12.2783 2.80401C12.0055 2.80401 11.7374 2.91259 11.5447 3.10284C11.3511 3.29217 11.2397 3.55574 11.2397 3.82487C11.2397 4.09317 11.3512 4.35665 11.5447 4.5469C11.7373 4.73623 12.0055 4.84574 12.2783 4.84574C12.5521 4.84574 12.8193 4.73623 13.0129 4.5469C13.2065 4.35665 13.3169 4.09308 13.3169 3.82487C13.3169 3.55574 13.2065 3.29217 13.0129 3.10284C12.8203 2.91259 12.5521 2.80401 12.2783 2.80401Z" fill="black"/>
</svg>
