<svg width="16" height="13" viewBox="0 0 16 13" fill="none" xmlns="http://www.w3.org/2000/svg">
<path d="M15.8067 2.73264C15.6885 2.68108 15.5495 2.69907 15.4512 2.77782C13.0159 4.71323 9.90788 7.19403 8.93 8.02011C8.38116 8.48458 7.61944 8.48458 7.06931 8.0195C6.027 7.13907 2.53675 4.35739 0.548813 2.77779C0.449844 2.69904 0.310531 2.68166 0.193344 2.73261C0.0755312 2.78391 0 2.89439 0 3.01615V10.875C0 11.5644 0.597969 12.125 1.33334 12.125H14.6667C15.402 12.125 16 11.5644 16 10.875V3.01615C16 2.89439 15.9245 2.78362 15.8067 2.73264Z" fill="black"/>
<path d="M0.334073 1.25206C2.53001 2.99555 6.3832 6.06287 7.5157 7.01927C7.66773 7.14835 7.83079 7.21398 8.00007 7.21398C8.16901 7.21398 8.33179 7.14897 8.48348 7.0205C9.61695 6.06316 13.4701 2.99555 15.6661 1.25206C15.8028 1.14372 15.8237 0.953291 15.713 0.82084C15.4571 0.514775 15.0756 0.339287 14.6667 0.339287H1.33342C0.924573 0.339287 0.543042 0.514775 0.287198 0.820869C0.176511 0.953291 0.197354 1.14372 0.334073 1.25206Z" fill="black"/>
</svg>
