<svg width="21" height="21" viewBox="0 0 21 21" fill="none" xmlns="http://www.w3.org/2000/svg">
<path d="M15.0931 21C14.4152 21 13.743 20.8802 13.0858 20.6414C10.1903 19.5895 7.50264 17.8764 5.31332 15.6871C3.12399 13.4978 1.41084 10.8101 0.359035 7.91463C0.0210394 6.9841 -0.0787066 6.02355 0.0626685 5.05956C0.195103 4.1566 0.54487 3.28001 1.0742 2.52453C1.60586 1.76573 2.31466 1.13461 3.12395 0.699411C3.98697 0.235338 4.92893 0 5.92377 0C6.23318 0 6.50059 0.216185 6.56543 0.518703L7.59546 5.3255C7.64209 5.54316 7.57519 5.76964 7.41782 5.92705L5.65779 7.68704C7.31812 10.9881 10.0122 13.6822 13.3133 15.3425L15.0733 13.5825C15.2307 13.4251 15.4572 13.3583 15.6748 13.4049L20.4816 14.4349C20.7842 14.4997 21.0003 14.7672 21.0003 15.0766C21.0003 16.0714 20.765 17.0134 20.3009 17.8764C19.8657 18.6857 19.2346 19.3945 18.4758 19.9262C17.7203 20.4555 16.8437 20.8053 15.9407 20.9377C15.6578 20.9792 15.3749 21 15.0931 21ZM5.39945 1.34116C4.0872 1.48602 2.92249 2.17382 2.14905 3.27771C1.27931 4.519 1.07649 6.04574 1.59261 7.46655C3.61476 13.0332 7.96721 17.3856 13.5339 19.4078C14.9546 19.9239 16.4814 19.7211 17.7227 18.8514C18.8266 18.0779 19.5144 16.9132 19.6593 15.601L15.7489 14.7631L13.9109 16.6011C13.7153 16.7967 13.4181 16.8487 13.1678 16.7311C9.2637 14.8969 6.10349 11.7367 4.26935 7.8326C4.15176 7.58229 4.20368 7.2851 4.39928 7.08955L6.23736 5.25147L5.39945 1.34116Z" fill="black"/>
</svg>
